<svg width="30" height="30" viewBox="0 0 30 30" fill="none" xmlns="http://www.w3.org/2000/svg">
<rect width="30" height="30" rx="15" fill="#30AA6E"/>
<path fill-rule="evenodd" clip-rule="evenodd" d="M19.5 9.9375H10.5C9.56802 9.9375 8.8125 10.693 8.8125 11.625V12.1875L21.1875 12.1875V11.625C21.1875 10.693 20.432 9.9375 19.5 9.9375ZM8.8125 16.125V13.875H11.9063V16.125H8.8125ZM8.8125 17.8125V18.375C8.8125 19.307 9.56802 20.0625 10.5 20.0625H11.9062V17.8125H8.8125ZM13.5937 17.8125V20.0625H16.4062V17.8125H13.5937ZM18.0937 17.8125V20.0625H19.5C20.432 20.0625 21.1875 19.307 21.1875 18.375V17.8125H18.0937ZM21.1875 16.125H18.0937V13.875H21.1875V16.125ZM16.4063 16.125L13.5937 16.125V13.875H16.4063V16.125ZM10.5 8.25C8.63604 8.25 7.125 9.76104 7.125 11.625V18.375C7.125 20.239 8.63604 21.75 10.5 21.75H19.5C21.364 21.75 22.875 20.239 22.875 18.375V11.625C22.875 9.76104 21.364 8.25 19.5 8.25H10.5Z" fill="white"/>
</svg>
